<svg viewBox="0 0 100 100" fill="none" xmlns="http://www.w3.org/2000/svg">
  <!-- Left curved wing (swoosh checkmark) -->
  <path d="M 22 28 C 22 28, 20 48, 34 68 C 42 78, 49 82, 54 82 C 59 82, 63 76, 65 71 C 67 67, 65 62, 60 62 L 52 62 C 43 62, 36 53, 33 43 L 30 28 C 29 25, 23 25, 22 28 Z" fill="url(#favBlueGrad)" />
  <!-- Right straight wing -->
  <path d="M 43.5 68 L 55.5 80 L 88 28 L 70 28 L 43.5 68 Z" fill="url(#favOrangeGrad)" />
  <defs>
    <linearGradient id="favBlueGrad" x1="0.2" y1="0.2" x2="0.8" y2="0.8">
      <stop offset="0%" stop-color="#4a5f78" />
      <stop offset="100%" stop-color="#1f2d3d" />
    </linearGradient>
    <linearGradient id="favOrangeGrad" x1="0.5" y1="0.7" x2="0.8" y2="0.3">
      <stop offset="0%" stop-color="#e67e22" />
      <stop offset="100%" stop-color="#f39c12" />
    </linearGradient>
  </defs>
</svg>
